<svg xmlns="http://www.w3.org/2000/svg" width="19" height="20" fill="none" viewBox="0 0 19 20"><path fill="#21D0B2" fill-rule="evenodd" d="M9.1438 12.908L15.0621 18.9674C15.6558 19.58 16.0421 19.5863 16.6467 18.9674L17.8341 17.7514C18.4158 17.156 18.4552 16.7651 17.8341 16.1291L11.5684 9.71485L17.8347 3.30056C18.4215 2.69771 18.4329 2.29085 17.8347 1.67771L16.6472 0.462279C16.0312 -0.168578 15.6507 -0.139435 15.0627 0.462279L9.1438 6.52171L3.22551 0.46285C2.63751 -0.138864 2.25694 -0.168007 1.64094 0.46285L0.453514 1.67828C-0.145343 2.29142 -0.134486 2.69828 0.453514 3.30114L6.71923 9.71485L0.453514 16.1291C-0.167629 16.7651 -0.134486 17.156 0.453514 17.7514L1.64037 18.9674C2.2398 19.5863 2.62609 19.58 3.22494 18.9674L9.1438 12.908Z" clip-rule="evenodd"/></svg>