<svg xmlns="http://www.w3.org/2000/svg" width="20" height="20" fill="none" viewBox="0 0 20 20"><path fill="#21D0B2" d="M4.03984 15.625C4.08672 15.625 4.13359 15.6203 4.18047 15.6133L8.12266 14.9219C8.16953 14.9125 8.21406 14.8914 8.24688 14.8563L18.182 4.92109C18.2038 4.89941 18.221 4.87366 18.2328 4.8453C18.2445 4.81695 18.2506 4.78656 18.2506 4.75586C18.2506 4.72516 18.2445 4.69477 18.2328 4.66642C18.221 4.63806 18.2038 4.61231 18.182 4.59063L14.2867 0.692969C14.2422 0.648438 14.1836 0.625 14.1203 0.625C14.057 0.625 13.9984 0.648438 13.9539 0.692969L4.01875 10.6281C3.98359 10.6633 3.9625 10.7055 3.95312 10.7523L3.26172 14.6945C3.23892 14.8201 3.24707 14.9493 3.28545 15.071C3.32384 15.1927 3.39132 15.3032 3.48203 15.393C3.63672 15.543 3.83125 15.625 4.03984 15.625ZM5.61953 11.5375L14.1203 3.03906L15.8383 4.75703L7.3375 13.2555L5.25391 13.6234L5.61953 11.5375ZM18.625 17.5938H1.375C0.960156 17.5938 0.625 17.9289 0.625 18.3438V19.1875C0.625 19.2906 0.709375 19.375 0.8125 19.375H19.1875C19.2906 19.375 19.375 19.2906 19.375 19.1875V18.3438C19.375 17.9289 19.0398 17.5938 18.625 17.5938Z"/></svg>