<svg xmlns="http://www.w3.org/2000/svg" width="24" height="16" fill="none" viewBox="0 0 24 16"><path fill="#21D0B2" d="M15.5969 7.9985C15.5969 9.90512 13.9836 11.4507 11.9935 11.4507C10.0034 11.4507 8.39012 9.90512 8.39012 7.9985C8.39012 6.09186 10.0034 4.54626 11.9935 4.54626C13.9836 4.54624 15.5969 6.09188 15.5969 7.9985ZM12 0.810425C9.9395 0.819565 7.80372 1.32118 5.78192 2.28156C4.28076 3.024 2.8178 4.07148 1.54788 5.36438C0.92416 6.02436 0.12862 6.98001 0 7.99963C0.0152 8.88284 0.9626 9.97301 1.54788 10.6349C2.73874 11.877 4.1636 12.8952 5.78192 13.7185C7.66734 14.6335 9.75424 15.1603 12 15.1896C14.0625 15.1803 16.1978 14.6729 18.2173 13.7185C19.7185 12.976 21.1822 11.9278 22.4521 10.6349C23.0758 9.97491 23.8714 9.01925 24 7.99963C23.9848 7.11641 23.0374 6.02621 22.4521 5.36435C21.2613 4.12223 19.8356 3.10476 18.2173 2.28152C16.3329 1.3672 14.2408 0.844005 12 0.810425ZM11.9985 2.59539C15.1209 2.59539 17.652 5.01526 17.652 8.00041C17.652 10.9855 15.1209 13.4054 11.9985 13.4054C8.8761 13.4054 6.34498 10.9855 6.34498 8.00041C6.34498 5.01526 8.8761 2.59539 11.9985 2.59539Z"/></svg>