<svg xmlns="http://www.w3.org/2000/svg" width="142" height="62" fill="none" viewBox="0 0 142 62"><path fill="#1DCDFE" d="M30.466 12.0951C30.466 11.5128 30.3087 11.0667 29.994 10.7568C29.6793 10.447 29.1113 10.1451 28.2899 9.8513C27.4685 9.55744 26.8392 9.25026 26.4019 8.92973C25.9698 8.60382 25.6445 8.23524 25.4258 7.82385C25.2125 7.40713 25.1058 6.93169 25.1058 6.39744C25.1058 5.47323 25.4125 4.71191 26.0258 4.11358C26.6445 3.51524 27.4526 3.21606 28.4499 3.21606C29.1326 3.21606 29.7406 3.37099 30.274 3.68085C30.8074 3.98537 31.218 4.41008 31.506 4.95499C31.794 5.49995 31.938 6.09829 31.938 6.75002H30.466C30.466 6.02882 30.2927 5.47054 29.946 5.0752C29.5993 4.67986 29.1006 4.4822 28.4499 4.4822C27.8579 4.4822 27.3992 4.64781 27.0738 4.97906C26.7485 5.31026 26.5859 5.77507 26.5859 6.37342C26.5859 6.86491 26.7619 7.27625 27.1139 7.60749C27.4659 7.93874 28.0099 8.23524 28.7459 8.49701C29.8926 8.8763 30.7113 9.34377 31.202 9.89935C31.698 10.455 31.946 11.1815 31.946 12.0791C31.946 13.0247 31.6394 13.7833 31.026 14.3549C30.4127 14.9212 29.578 15.2044 28.5219 15.2044C27.8446 15.2044 27.2179 15.0574 26.6418 14.7636C26.0712 14.4644 25.6205 14.0477 25.2898 13.5135C24.9645 12.9739 24.8018 12.3569 24.8018 11.6623H26.2738C26.2738 12.3836 26.4739 12.9445 26.8739 13.3452C27.2792 13.7459 27.8285 13.9462 28.5219 13.9462C29.1673 13.9462 29.6526 13.7806 29.978 13.4494C30.3033 13.1182 30.466 12.6667 30.466 12.0951ZM40.8184 3.37633V11.6704C40.8077 12.7762 40.4877 13.6417 39.8584 14.2667C39.229 14.8918 38.3516 15.2044 37.2263 15.2044C36.0742 15.2044 35.1942 14.8998 34.5862 14.2908C33.9781 13.6764 33.6688 12.803 33.6581 11.6704V3.37633H35.1141V11.6143C35.1141 12.3996 35.2795 12.9873 35.6102 13.3773C35.9462 13.7619 36.4849 13.9542 37.2263 13.9542C37.9729 13.9542 38.5116 13.7619 38.8423 13.3773C39.1783 12.9873 39.3463 12.3996 39.3463 11.6143V3.37633H40.8184ZM44.5385 10.4764V15.0441H43.0745V3.37633H46.7867C47.8694 3.37633 48.7201 3.70222 49.3386 4.35399C49.9576 5.00044 50.2666 5.8632 50.2666 6.94236C50.2666 8.06429 49.9708 8.92973 49.3786 9.53875C48.792 10.1424 47.9627 10.455 46.8904 10.4764H44.5385ZM44.5385 9.21822H46.7867C47.4375 9.21822 47.9359 9.02323 48.2827 8.63323C48.6295 8.24322 48.8029 7.68495 48.8029 6.95841C48.8029 6.25854 48.624 5.69757 48.2668 5.27556C47.9095 4.85351 47.4189 4.64248 46.7944 4.64248H44.5385V9.21822ZM57.7471 9.65094H53.6268V13.7859H58.427V15.0441H52.1627V3.37633H58.3469V4.64248H53.6268V8.39284H57.7471V9.65094ZM63.8271 10.3241H61.7791V15.0441H60.3072V3.37633H63.5714C64.7128 3.37633 65.5766 3.67551 66.1633 4.27385C66.75 4.86686 67.0435 5.73765 67.0435 6.88629C67.0435 7.60749 66.8833 8.23789 66.5634 8.77747C66.2489 9.31172 65.8006 9.71504 65.2194 9.98752L67.4754 14.9479V15.0441H65.8993L63.8271 10.3241ZM61.7791 9.06595H63.5554C64.1685 9.06595 64.6564 8.86828 65.0191 8.47294C65.3873 8.07764 65.5712 7.54873 65.5712 6.88629C65.5712 5.3904 64.894 4.64248 63.539 4.64248H61.7791V9.06595Z"/><path fill="#21D0B2" fill-rule="evenodd" d="M2.97106 19.7014C2.03896 22.0355 1.57291 24.7635 1.57291 27.8854C1.57291 30.9927 2.03896 33.7207 2.97106 36.0694C3.90316 38.4035 5.32316 40.2271 7.23106 41.54C9.15352 42.8529 11.6003 43.5094 14.5714 43.5094C17.5133 43.5094 19.9382 42.8602 21.8461 41.5619C23.7686 40.2635 25.2032 38.4473 26.1498 36.1132C27.0965 33.7645 27.5698 31.0219 27.5698 27.8854C27.5698 24.7927 27.1038 22.0793 26.1717 19.7452C25.2396 17.3965 23.8123 15.5729 21.8898 14.2746C19.9674 12.9616 17.5279 12.3052 14.5714 12.3052C11.6294 12.3052 9.19721 12.9544 7.27475 14.2527C5.35229 15.5511 3.91773 17.3673 2.97106 19.7014ZM37.3139 43.0499C37.9402 43.0207 38.5518 42.955 39.149 42.8529V33.9468H39.6514H46.9264C47.0575 33.5529 47.1449 33.0861 47.1886 32.5463C47.2468 32.0066 47.276 31.5398 47.276 31.1459C47.276 30.7958 47.2468 30.3727 47.1886 29.8767C47.1449 29.3661 47.0575 28.9212 46.9264 28.5419H39.6514H39.149V26.2661V25.3471V24.4061C39.5568 24.4061 39.9646 24.4134 40.3724 24.428H41.6613H46.3147C47.5381 24.428 48.412 24.1508 48.9363 23.5965C49.4606 23.0421 49.7227 22.2689 49.7227 21.2769C49.7227 20.9706 49.6936 20.5694 49.6354 20.0734C49.5917 19.5774 49.5188 19.1325 49.4169 18.7386H32.4859L32.2456 18.9355V42.8529C32.8427 42.955 33.4471 43.0207 34.0588 43.0499C34.6851 43.0936 35.2312 43.1155 35.6973 43.1155C36.1633 43.1155 36.7022 43.0936 37.3139 43.0499ZM70.9258 41.715C71.5812 40.8981 71.9089 39.4466 71.9089 37.3605H63.367C62.7408 37.3605 62.2092 37.375 61.7723 37.4042C61.3353 37.4334 60.862 37.4626 60.3523 37.4918V37.448C60.3523 36.9228 60.3595 36.4852 60.3741 36.135C60.3887 35.7849 60.396 35.34 60.396 34.8002V33.3779H61.9684H63.1267H68.7193C68.865 32.9694 68.9596 32.5172 69.0033 32.0212C69.0616 31.5106 69.0907 31.0511 69.0907 30.6426C69.0907 30.2925 69.0616 29.8694 69.0033 29.3734C68.9596 28.8628 68.865 28.4106 68.7193 28.0167H63.1267C62.515 28.0167 61.6048 28.024 60.396 28.0386V26.5943C60.396 26.1421 60.3887 25.7555 60.3741 25.4346C60.3741 25.1136 60.3668 24.7271 60.3523 24.2748C61.5902 24.2894 62.515 24.2967 63.1267 24.2967H70.7729C70.9622 23.7861 71.0933 23.2828 71.1661 22.7868C71.2535 22.2908 71.2972 21.8459 71.2972 21.452C71.2972 21.0435 71.2899 20.6132 71.2753 20.1609C71.2608 19.7087 71.2025 19.2346 71.1006 18.7386H53.8203L53.5799 18.9793V39.0235C53.5799 40.2198 53.9368 41.1753 54.6504 41.8901C55.3641 42.5903 56.3399 42.9405 57.5778 42.9405H67.6489C69.1927 42.9405 70.285 42.532 70.9258 41.715ZM95.5164 29.0671C96.0261 28.1918 96.281 27.1925 96.281 26.0692C96.281 24.1581 95.8295 22.6555 94.9265 21.5614C94.0381 20.4527 92.8511 19.6722 91.3656 19.22C89.8801 18.7532 88.2635 18.5198 86.5158 18.5198C84.972 18.5198 83.4209 18.5416 81.8625 18.5854C80.3187 18.6146 78.6657 18.6511 76.9034 18.6948L76.6631 18.9574V42.8529C77.2166 42.955 77.8283 43.0207 78.4982 43.0499C79.1682 43.0936 79.707 43.1155 80.1148 43.1155C80.5518 43.1155 81.0761 43.0936 81.6878 43.0499C82.314 43.0207 82.9184 42.955 83.501 42.8529V34.3407H84.353C85.0666 34.3407 85.6492 34.4136 86.1007 34.5595C86.5522 34.7054 86.9308 35.1358 87.2367 35.8506L89.1591 40.2708C89.6106 41.3212 90.1349 42.087 90.7321 42.5685C91.3438 43.0353 92.1375 43.2687 93.1133 43.2687C94.1037 43.2687 95.0212 43.0499 95.8659 42.6122C96.7106 42.16 97.3442 41.6713 97.7665 41.1461C97.3587 40.796 96.9873 40.3729 96.6524 39.8769C96.3174 39.3663 96.0188 38.812 95.7567 38.2139L94.6207 35.6099C94.242 34.7638 93.7905 34.0708 93.2662 33.5311C92.7565 32.9913 92.1084 32.5901 91.3219 32.3275C92.0792 32.1671 92.8366 31.8023 93.5939 31.2334C94.3658 30.6645 95.0066 29.9423 95.5164 29.0671ZM83.501 29.1327V23.4652C84.0107 23.4652 84.4549 23.4725 84.8336 23.4871C85.2123 23.5016 85.6638 23.5089 86.1881 23.5089C87.2804 23.5089 88.0595 23.7788 88.5256 24.3186C88.9917 24.8583 89.2247 25.5002 89.2247 26.2442C89.2247 27.0028 88.9917 27.6666 88.5256 28.2355C88.0595 28.8045 87.1711 29.0889 85.8604 29.0889C85.6565 29.0889 85.3361 29.0962 84.8991 29.1108C84.4768 29.1108 84.0107 29.1181 83.501 29.1327ZM105.231 25.6534C105.217 26.0473 105.209 26.4776 105.209 26.9445V42.8529C105.69 42.9405 106.272 43.0061 106.957 43.0499C107.641 43.0936 108.209 43.1155 108.661 43.1155C109.142 43.1155 109.739 43.0936 110.452 43.0499C111.166 43.0061 111.727 42.9405 112.134 42.8529V26.9445C112.134 26.4776 112.127 26.0473 112.113 25.6534C112.098 25.2449 112.091 24.7927 112.091 24.2967C112.367 24.2967 112.753 24.304 113.249 24.3186C113.758 24.3332 114.166 24.3405 114.472 24.3405H115.368C116.591 24.3405 117.465 24.0779 117.989 23.5527C118.514 23.0275 118.776 22.2689 118.776 21.2769C118.776 20.9706 118.747 20.5694 118.688 20.0734C118.645 19.5774 118.572 19.1325 118.47 18.7386H98.6991C98.5826 19.2346 98.5098 19.7452 98.4806 20.2703C98.4515 20.7809 98.4369 21.2259 98.4369 21.6052C98.4369 21.9845 98.4515 22.4075 98.4806 22.8743C98.5098 23.3266 98.5826 23.8153 98.6991 24.3405H102.741C103.046 24.3405 103.462 24.3332 103.986 24.3186C104.525 24.304 104.947 24.2967 105.253 24.2967C105.253 24.7927 105.246 25.2449 105.231 25.6534ZM125.155 38.6296H125.832H131.753H132.452C132.67 38.615 132.896 38.6005 133.129 38.5859L133.675 40.3583C134.054 41.6713 134.615 42.4809 135.357 42.7873C136.1 43.0936 136.872 43.2468 137.673 43.2468C138.154 43.2468 138.787 43.1812 139.574 43.0499C140.36 42.9332 141.008 42.7581 141.518 42.5247L133.26 18.7386C132.474 18.6219 131.767 18.5489 131.141 18.5198C130.515 18.4906 129.932 18.476 129.393 18.476C128.811 18.476 128.163 18.4906 127.449 18.5198C126.75 18.5489 126.022 18.6219 125.264 18.7386L116.766 42.284L117.007 42.656C117.385 42.8165 117.866 42.9405 118.448 43.028C119.046 43.1155 119.635 43.1593 120.218 43.1593C120.757 43.1593 121.274 43.1301 121.769 43.0718C122.264 43.028 122.723 42.955 123.145 42.8529L124.5 38.5859L125.155 38.6296ZM126.226 33.2247L126.706 31.7148C127.056 30.5623 127.413 29.2713 127.777 27.8416C128.155 26.412 128.498 25.1428 128.804 24.0341H129.066C129.342 25.1866 129.648 26.4703 129.983 27.8854C130.318 29.3005 130.653 30.5842 130.988 31.7367L131.447 33.2247C131.258 33.2101 131.068 33.2028 130.879 33.2028C130.704 33.1882 130.508 33.1809 130.289 33.1809H127.558C127.325 33.1809 127.1 33.1882 126.881 33.2028C126.663 33.2028 126.444 33.2101 126.226 33.2247ZM12.4639 39.9227C12.9247 40.0507 13.5302 40.1147 14.2804 40.1147C15.0199 40.1147 15.6093 40.0507 16.0487 39.9227V37.2987C17.6991 37.0533 19.0226 36.4507 20.0193 35.4907C21.0267 34.52 21.5304 33.2933 21.5304 31.8107C21.5304 30.392 21.1339 29.2187 20.3408 28.2907C19.5585 27.352 18.5404 26.6427 17.2865 26.1627L14.6662 25.1707C14.1303 24.9573 13.7231 24.744 13.4445 24.5307C13.1658 24.3067 13.0265 23.9973 13.0265 23.6027C13.0265 22.7813 13.6106 22.3707 14.7787 22.3707C16.0755 22.3707 17.5812 22.776 19.2959 23.5867C19.7996 23.1707 20.2122 22.616 20.5337 21.9227C20.8553 21.2293 21.016 20.5413 21.016 19.8587C20.3623 19.528 19.655 19.2453 18.894 19.0107C18.1331 18.7653 17.2919 18.5893 16.3702 18.4827V15.8587C16.1344 15.7947 15.8504 15.7467 15.5182 15.7147C15.1967 15.6827 14.8805 15.6667 14.5697 15.6667C14.2482 15.6667 13.9267 15.6827 13.6052 15.7147C13.2837 15.7467 13.0051 15.7947 12.7693 15.8587V18.4827C11.3654 18.7387 10.1865 19.368 9.23269 20.3707C8.2896 21.3627 7.81805 22.6107 7.81805 24.1147C7.81805 25.448 8.23065 26.52 9.05586 27.3307C9.89178 28.1307 10.8885 28.7493 12.0459 29.1867L14.7466 30.1787C15.3574 30.4133 15.7647 30.696 15.9683 31.0267C16.1826 31.3467 16.2898 31.656 16.2898 31.9547C16.2898 32.4133 16.113 32.776 15.7593 33.0427C15.4164 33.2987 14.9395 33.4213 14.3286 33.4107C13.557 33.4107 12.6996 33.2453 11.7565 32.9147C10.8134 32.5733 9.96144 32.168 9.20054 31.6987C8.86831 31.9013 8.56288 32.2213 8.28424 32.6587C8.01631 33.0853 7.79661 33.5493 7.62514 34.0507C7.46439 34.552 7.37865 35.0107 7.36794 35.4267C7.8502 35.7573 8.55216 36.104 9.47382 36.4667C10.3955 36.8187 11.3922 37.08 12.4639 37.2507V39.9227Z" clip-rule="evenodd"/><path fill="#1DCDFE" d="M102.709 53.1691C102.709 51.8334 102.957 50.8159 103.453 50.1161C103.954 49.4158 104.671 49.0662 105.605 49.0662C106.432 49.0662 107.077 49.4026 107.541 50.076V45.5883H108.957V57.8971H107.661L107.589 56.9675C107.125 57.6942 106.461 58.0576 105.597 58.0576C104.701 58.0576 103.997 57.7102 103.485 57.0154C102.978 56.3156 102.719 55.33 102.709 54.0586V53.1691ZM104.125 53.9783C104.125 54.9507 104.269 55.6664 104.557 56.126C104.845 56.58 105.314 56.8071 105.965 56.8071C106.669 56.8071 107.194 56.4519 107.541 55.7412V51.3661C107.178 50.6713 106.656 50.3244 105.973 50.3244C105.322 50.3244 104.853 50.5542 104.565 51.0133C104.277 51.4673 104.13 52.1676 104.125 53.1131V53.9783ZM110.837 53.1609C110.837 51.9004 111.141 50.9038 111.749 50.1722C112.363 49.435 113.17 49.0662 114.173 49.0662C115.176 49.0662 115.981 49.4241 116.589 50.1398C117.203 50.856 117.517 51.8307 117.533 53.0647V53.9783C117.533 55.2338 117.229 56.2276 116.621 56.9593C116.013 57.6915 115.203 58.0576 114.189 58.0576C113.186 58.0576 112.381 57.702 111.773 56.9917C111.171 56.281 110.858 55.3195 110.837 54.1069V53.1609ZM112.253 53.9783C112.253 54.8705 112.426 55.573 112.773 56.0859C113.125 56.5937 113.597 56.8472 114.189 56.8472C115.437 56.8472 116.08 55.9445 116.117 54.1388V53.1609C116.117 52.2742 115.941 51.5744 115.589 51.0616C115.237 50.5432 114.765 50.2843 114.173 50.2843C113.592 50.2843 113.125 50.5432 112.773 51.0616C112.426 51.5744 112.253 52.2715 112.253 53.1532V53.9783ZM122.821 53.1691C122.821 51.8334 123.069 50.8159 123.565 50.1161C124.067 49.4158 124.784 49.0662 125.718 49.0662C126.544 49.0662 127.19 49.4026 127.654 50.076V45.5883H129.07V57.8971H127.774L127.702 56.9675C127.237 57.6942 126.573 58.0576 125.71 58.0576C124.813 58.0576 124.109 57.7102 123.597 57.0154C123.091 56.3156 122.832 55.33 122.821 54.0586V53.1691ZM124.238 53.9783C124.238 54.9507 124.382 55.6664 124.67 56.126C124.958 56.58 125.427 56.8071 126.078 56.8071C126.781 56.8071 127.307 56.4519 127.654 55.7412V51.3661C127.291 50.6713 126.768 50.3244 126.086 50.3244C125.435 50.3244 124.965 50.5542 124.677 51.0133C124.39 51.4673 124.243 52.1676 124.238 53.1131V53.9783ZM132.774 57.8971H131.358V49.2262H132.774V57.8971ZM132.886 46.9267C132.886 47.167 132.819 47.3671 132.686 47.5276C132.552 47.6876 132.35 47.7678 132.078 47.7678C131.811 47.7678 131.611 47.6876 131.478 47.5276C131.345 47.3671 131.278 47.167 131.278 46.9267C131.278 46.686 131.345 46.4832 131.478 46.3177C131.611 46.1517 131.811 46.0692 132.078 46.0692C132.344 46.0692 132.545 46.1545 132.678 46.3254C132.816 46.4909 132.886 46.6915 132.886 46.9267ZM139.462 57.8971C139.377 57.7102 139.316 57.3947 139.278 56.9516C138.777 57.6887 138.137 58.0576 137.358 58.0576C136.574 58.0576 135.96 57.8383 135.518 57.4002C135.081 56.9571 134.862 56.3343 134.862 55.5329C134.862 54.6517 135.161 53.9519 135.758 53.4335C136.355 52.9152 137.174 52.6508 138.214 52.6403H139.254V51.7185C139.254 51.2006 139.14 50.8318 138.91 50.6125C138.681 50.3937 138.331 50.2843 137.862 50.2843C137.436 50.2843 137.089 50.4124 136.822 50.6691C136.555 50.9198 136.422 51.2403 136.422 51.6305H135.006C135.006 51.1869 135.137 50.7648 135.398 50.3645C135.659 49.9583 136.011 49.6406 136.454 49.4108C136.897 49.1811 137.39 49.0662 137.934 49.0662C138.82 49.0662 139.491 49.2877 139.95 49.7313C140.414 50.1694 140.651 50.8104 140.662 51.6547V56.0298C140.667 56.6977 140.758 57.2775 140.934 57.769V57.8971H139.462ZM137.574 56.767C137.921 56.767 138.252 56.6712 138.566 56.4788C138.881 56.2865 139.11 56.0457 139.254 55.7576V53.6897H138.454C137.782 53.7007 137.251 53.853 136.862 54.1465C136.472 54.4351 136.278 54.8413 136.278 55.3647C136.278 55.8561 136.377 56.2144 136.574 56.4387C136.771 56.6575 137.105 56.767 137.574 56.767Z"/></svg>