<svg xmlns="http://www.w3.org/2000/svg" width="24" height="24" fill="none" viewBox="0 0 24 24"><path fill="#21D0B2" d="M23.2656 0.486004C23.196 0.312618 23.0622 0.172747 22.8921 0.0954898C22.722 0.0182323 22.5286 0.00953646 22.3522 0.0712111C22.1759 0.132886 22.0301 0.260182 21.9452 0.426619C21.8603 0.593056 21.8428 0.785817 21.8964 0.964804C23.0112 4.1688 20.7984 6.5616 19.1112 7.8432L18.4296 6.8664C18.2004 6.5388 17.688 6.2664 17.2896 6.2616L13.464 6.2784C12.9967 6.29252 12.5418 6.43266 12.1476 6.684L0.874796 14.5884C0.61259 14.7729 0.434179 15.0538 0.378627 15.3696C0.323074 15.6854 0.394907 16.0103 0.578396 16.2732L5.7012 23.6028C6.0852 24.1488 6.6984 24.0828 7.2456 23.7012L18.5184 15.7956C18.8424 15.5664 19.2168 15.072 19.3488 14.694L20.5464 10.92C20.6784 10.5432 20.598 9.9684 20.3688 9.6408L19.9536 9.0456C22.2192 7.3092 24.5712 4.2408 23.2656 0.486004ZM18.0204 11.7156C17.8127 11.861 17.5784 11.964 17.3309 12.0188C17.0834 12.0736 16.8276 12.0791 16.5779 12.0349C16.3283 11.9908 16.0898 11.8979 15.8761 11.7616C15.6624 11.6253 15.4776 11.4482 15.3324 11.2404C15.0383 10.82 14.923 10.3001 15.0119 9.79476C15.1008 9.28945 15.3865 8.84005 15.8064 8.5452C16.1356 8.31458 16.5286 8.19257 16.9305 8.19623C17.3324 8.19989 17.7231 8.32903 18.048 8.5656C17.7216 8.7624 17.4972 8.8776 17.4552 8.8956C17.3064 8.96653 17.1862 9.08588 17.1141 9.23409C17.0421 9.38231 17.0225 9.5506 17.0587 9.71139C17.0948 9.87218 17.1844 10.0159 17.3129 10.1191C17.4415 10.2223 17.6012 10.2787 17.766 10.2792C17.8692 10.2792 17.9748 10.2552 18.0744 10.2084C18.3072 10.098 18.5568 9.9672 18.8172 9.8124C18.8771 10.1725 18.8341 10.5421 18.6931 10.8789C18.5522 11.2156 18.319 11.5056 18.0204 11.7156Z"/></svg>